<svg width="80" height="95" viewBox="0 0 80 95" fill="none" xmlns="http://www.w3.org/2000/svg">
<rect width="80" height="80" rx="40" fill="url(#paint0_radial)"/>
<g clip-path="url(#clip0)">
<path d="M32.2129 68.2024V61.4376C24.6488 55.2772 25.6411 40.2614 25.6411 40.2614C37.2639 37.118 43.2365 30.0024 43.2365 30.0024C47.3482 38.0526 54.2972 40.3568 54.2972 40.3568C54.2972 40.3568 55.1753 55.1601 47.7466 61.3528L47.7831 61.3811V68.2024C47.7831 68.2024 54.8193 71.8897 61.4946 75.6341C64.0425 60.0121 68.4372 17.1431 39.9183 17.1431C11.3493 17.1431 15.8094 60.1622 18.3548 75.7165C25.0732 71.9439 32.2129 68.2024 32.2129 68.2024Z" fill="#CA6D36"/>
<path d="M61.9831 72.4179C55.1677 68.5812 47.7831 64.7114 47.7831 64.7114V68.2027C47.7831 68.2027 54.8192 71.89 61.4946 75.6344C61.6529 74.6621 61.8189 73.5845 61.9831 72.4179Z" fill="#AD5E2E"/>
<path d="M18.3548 75.7168C25.0731 71.9442 32.2128 68.2027 32.2128 68.2027V64.7114C32.2123 64.712 24.7206 68.6377 17.8645 72.5009C18.0299 73.6686 18.1964 74.7457 18.3548 75.7168Z" fill="#AD5E2E"/>
<path d="M47.7831 68.2026C47.7831 68.2026 68.1829 78.8919 72.464 82.3538C75.91 85.1394 76.9365 91.1709 77.2054 93.4186C77.2607 93.8806 76.9 94.2861 76.435 94.2861H3.56092C3.09597 94.2861 2.73459 93.8806 2.79051 93.4186C3.05948 91.1709 4.08591 85.1394 7.53189 82.3538C11.813 78.8919 32.2135 68.2026 32.2135 68.2026L37.7812 79.042C38.7082 80.8471 41.2878 80.8471 42.2147 79.042L47.7831 68.2026Z" fill="#FFA9C8"/>
<path d="M3.09245 91.478C2.94414 92.2567 2.84938 92.9276 2.79052 93.4185C2.7352 93.8805 3.09598 94.286 3.56153 94.286H76.435C76.9 94.286 77.2614 93.8805 77.206 93.4191C77.1472 92.9282 77.0518 92.2567 76.9035 91.478H3.09245Z" fill="#FF5492"/>
<path d="M42.2148 79.0421L47.7831 68.2027V61.3813C45.832 62.9952 43.3066 64.0175 40.0371 64.0281C36.7348 64.0393 34.1834 63.0128 32.2135 61.3825V68.2027L37.7812 79.0421C38.7082 80.8472 41.2878 80.8472 42.2148 79.0421Z" fill="#FFBD86"/>
<path d="M32.2129 61.3825V64.2452C34.1545 65.8267 36.6594 66.8255 39.8906 66.8361C43.2324 66.8472 45.8032 65.7943 47.7831 64.1305V61.3813C45.832 62.9952 43.3059 64.0175 40.0371 64.0281C36.7347 64.0387 34.1834 63.0128 32.2129 61.3825Z" fill="#FFA664"/>
<path d="M25.6417 40.2614C25.6417 40.2614 24.0738 63.9754 39.8905 64.0278C55.7079 64.0802 54.2971 40.3568 54.2971 40.3568C54.2971 40.3568 47.3481 38.0532 43.2365 30.0029C43.2365 30.0029 37.2638 37.1179 25.6417 40.2614Z" fill="#FED2A4"/>
<path d="M39.8905 61.2196C27.7063 61.179 25.8388 47.0996 25.6234 40.6338C25.5045 43.6389 25.2421 63.9793 39.8905 64.0276C55.0352 64.0776 54.386 42.3347 54.3036 40.4849C54.0841 46.8318 52.2302 61.2602 39.8905 61.2196Z" fill="#FFBD86"/>
<path d="M41.2572 50.6147C41.3784 50.6147 41.502 50.6124 41.628 50.6071C42.2736 50.58 42.7756 50.035 42.7486 49.3893C42.7215 48.7437 42.1777 48.244 41.5308 48.2687C40.9435 48.2941 39.9088 48.2576 39.5863 47.7443C39.1725 47.0869 39.6451 45.5326 40.0942 44.6886C40.3985 44.1206 40.186 43.412 39.6175 43.1065C39.0489 42.7999 38.3391 43.013 38.0331 43.5815C37.8524 43.917 36.3068 46.9157 37.6017 48.985C38.2791 50.0674 39.508 50.6147 41.2572 50.6147Z" fill="#FFA664"/>
<path d="M34.583 42.4865C34.583 41.1405 33.7331 40.0864 32.6478 40.0864C31.5625 40.0864 30.712 41.1405 30.712 42.4865C30.712 43.8326 31.5625 44.8867 32.6478 44.8867C33.7331 44.8867 34.583 43.8326 34.583 42.4865Z" fill="#433F43"/>
<path d="M47.3481 44.8867C48.4334 44.8867 49.2839 43.8326 49.2839 42.4871C49.2839 41.1411 48.4334 40.0864 47.3481 40.0864C46.2634 40.0864 45.413 41.1411 45.413 42.4871C45.413 43.8326 46.2634 44.8867 47.3481 44.8867Z" fill="#433F43"/>
<path d="M33.8779 51.9164C33.3376 52.2707 33.1869 52.9964 33.5412 53.5366C33.6366 53.682 35.9231 57.0962 39.9983 57.0962C44.0728 57.0962 46.3593 53.682 46.4547 53.5366C46.809 52.9964 46.6583 52.2707 46.118 51.9164C45.5777 51.5621 44.8526 51.7127 44.4977 52.253C44.4813 52.2783 42.8233 54.7561 39.9977 54.7561C37.2056 54.7561 35.5117 52.2736 35.4976 52.253C35.1433 51.7127 34.4182 51.5621 33.8779 51.9164Z" fill="#FF646F"/>
</g>
<defs>
<radialGradient id="paint0_radial" cx="0" cy="0" r="1" gradientUnits="userSpaceOnUse" gradientTransform="translate(40 40) rotate(90) scale(40)">
<stop stop-color="#F8EFF1"/>
<stop offset="1" stop-color="#FE8CA0" stop-opacity="0"/>
</radialGradient>
<clipPath id="clip0">
<rect width="77.1429" height="77.1429" fill="white" transform="translate(1.42859 17.1431)"/>
</clipPath>
</defs>
</svg>
