<svg width="80" height="95" viewBox="0 0 80 95" fill="none" xmlns="http://www.w3.org/2000/svg">
<rect width="80" height="80" rx="40" fill="url(#paint0_radial)"/>
<g clip-path="url(#clip0)">
<path d="M25.8494 43.2572C25.83 41.9794 25.8765 41.1961 25.8765 41.1961C25.8765 41.1961 32.0304 36.543 35.0862 28.6811C35.0862 28.6811 40.7681 37.321 54.0859 41.1031C54.0859 41.1031 54.1412 41.9371 54.1253 43.2896C55.2624 42.7187 56.7267 42.4385 58.0109 43.6209C64.4885 22.7385 45.762 17.458 40.924 17.1601C35.8643 16.8488 32.7838 20.8969 32.7838 20.8969C28.2248 17.3938 23.1762 21.5973 21.3858 28.1361C20.29 32.1377 21.0604 39.0567 21.8231 43.8228C23.1309 42.4332 24.66 42.6781 25.8494 43.2572Z" fill="#945B44"/>
<path d="M58.6182 44.3118C57.2087 42.3525 55.4465 42.6256 54.1252 43.2883C54.0946 45.9432 53.7909 50.5969 52.2625 54.8698C58.9143 57.1016 60.9424 47.5441 58.6182 44.3118Z" fill="#FFBD86"/>
<path d="M25.8495 43.2572C24.5358 42.618 22.8078 42.3856 21.4218 44.3131C19.0988 47.5425 21.1222 57.0894 27.7634 54.8758C26.2055 50.5647 25.8895 45.8727 25.8495 43.2572Z" fill="#FFBD86"/>
<path d="M53.0429 52.2653C52.8269 53.1357 52.5697 54.0109 52.2625 54.8702C57.7466 56.71 60.0879 50.5367 59.4375 46.501C58.959 49.7969 56.8473 53.0592 53.0429 52.2653Z" fill="#FFA664"/>
<path d="M20.6019 46.502C19.9527 50.5341 22.2887 56.7004 27.7634 54.8753C27.4527 54.016 27.1919 53.1408 26.9724 52.2704C23.1833 53.0461 21.0798 49.7908 20.6019 46.502Z" fill="#FFA664"/>
<path d="M40.0588 64.4985C36.8071 64.5097 34.2957 63.4991 32.3564 61.8947V68.6084C32.3564 72.8406 35.7871 76.2719 40.02 76.2719C44.2523 76.2719 47.6836 72.8406 47.6836 68.6084V61.8936C45.7625 63.4821 43.2765 64.4885 40.0588 64.4985Z" fill="#FFBD86"/>
<path d="M54.0859 41.1032C54.0859 41.1032 55.6291 64.4475 40.0584 64.4993C24.4876 64.5505 25.8766 41.1967 25.8766 41.1967C25.8766 41.1967 32.0305 36.543 35.0857 28.6812C35.0863 28.6812 40.7681 37.3211 54.0859 41.1032Z" fill="#FED2A4"/>
<path d="M40.0589 61.6816C27.93 61.7222 26.0914 47.561 25.8712 41.2988C25.7953 42.9409 25.0796 64.5484 40.0589 64.4984C54.5179 64.4507 54.2195 44.3199 54.103 41.446C53.8864 47.8247 52.0348 61.6422 40.0589 61.6816Z" fill="#FFBD86"/>
<path d="M32.3564 61.8947V64.708C34.2957 66.3136 36.8059 67.3265 40.0588 67.3159C43.2771 67.3047 45.7625 66.2977 47.6836 64.708V61.8936C45.7625 63.4821 43.2765 64.4885 40.0588 64.4991C36.8071 64.5097 34.2957 63.4991 32.3564 61.8947Z" fill="#FFA664"/>
<path d="M71.9802 82.5389C67.7662 79.1317 47.6836 68.6084 47.6836 68.6084C47.6836 72.8413 44.2523 76.2725 40.02 76.2725C35.7871 76.2725 32.3565 72.8413 32.3565 68.6084C32.3565 68.6084 12.2738 79.1317 8.05922 82.5389C4.67386 85.2762 3.66096 91.1947 3.39317 93.4183C3.33726 93.8803 3.69863 94.2858 4.16417 94.2858H75.8759C76.3414 94.2858 76.7022 93.8803 76.6469 93.4183C76.3791 91.1947 75.3656 85.2762 71.9802 82.5389Z" fill="#96BEF1"/>
<path d="M3.69863 91.4688C3.54855 92.2503 3.45261 92.9248 3.39317 93.418C3.33726 93.8801 3.69863 94.2856 4.16417 94.2856H75.8759C76.3414 94.2856 76.7022 93.8801 76.6469 93.418C76.5874 92.9248 76.4915 92.2503 76.3408 91.4688H3.69863Z" fill="#3485EA"/>
<path d="M34.7112 43.2935C34.7112 41.9563 33.8643 40.9087 32.7837 40.9087C31.7032 40.9087 30.8568 41.9563 30.8568 43.2935C30.8568 44.6307 31.7032 45.6777 32.7837 45.6777C33.8643 45.6777 34.7112 44.6301 34.7112 43.2935Z" fill="#433F43"/>
<path d="M47.2557 45.6777C48.3362 45.6777 49.1826 44.6301 49.1826 43.2929C49.1826 41.9557 48.3362 40.9087 47.2557 40.9087C46.1751 40.9087 45.3287 41.9557 45.3287 43.2929C45.3287 44.6301 46.1751 45.6777 47.2557 45.6777Z" fill="#433F43"/>
<path d="M41.2595 51.3169C41.379 51.3169 41.5008 51.314 41.6256 51.3093C42.273 51.2822 42.7762 50.7355 42.7491 50.0875C42.7221 49.4395 42.1777 48.9386 41.5279 48.9639C40.9546 48.988 39.9447 48.9539 39.6328 48.4577C39.2308 47.8186 39.6934 46.2983 40.1336 45.472C40.4397 44.9017 40.226 44.1907 39.6557 43.8841C39.0854 43.5769 38.3733 43.7905 38.066 44.3608C37.8877 44.6922 36.361 47.6544 37.6423 49.702C38.3138 50.7743 39.5292 51.3169 41.2595 51.3169Z" fill="#FFA664"/>
<path d="M33.9833 52.5581C33.4413 52.9136 33.29 53.641 33.6455 54.1831C33.7397 54.3267 35.9968 57.6973 40.0201 57.6973C44.0429 57.6973 46.3005 54.3267 46.3947 54.1831C46.749 53.6428 46.5984 52.9206 46.0598 52.5634C45.5219 52.2061 44.7944 52.3544 44.4348 52.8912C44.4184 52.9159 42.7569 55.3502 40.0201 55.3502C37.2839 55.3502 35.6218 52.9159 35.6083 52.8959C35.2528 52.3539 34.5254 52.2026 33.9833 52.5581Z" fill="#FF646F"/>
</g>
<defs>
<radialGradient id="paint0_radial" cx="0" cy="0" r="1" gradientUnits="userSpaceOnUse" gradientTransform="translate(40 40) rotate(90) scale(40)">
<stop stop-color="#EFF2F8"/>
<stop offset="1" stop-color="#8CC7FE" stop-opacity="0"/>
</radialGradient>
<clipPath id="clip0">
<rect x="1.42859" y="17.1431" width="77.1429" height="77.1429" fill="white"/>
</clipPath>
</defs>
</svg>
