<svg width="80" height="100" viewBox="0 0 80 100" fill="none" xmlns="http://www.w3.org/2000/svg">
<rect width="80" height="100" rx="40" fill="url(#paint0_radial)"/>
<g clip-path="url(#clip0)">
<path d="M62.7212 43.6756L46.302 42.1528L39.7799 27.0078C39.3232 25.9473 37.8196 25.9473 37.363 27.0078L30.8409 42.1527L14.4217 43.6756C13.272 43.7822 12.8075 45.2122 13.6748 45.9742L26.0631 56.8571L22.4376 72.9433C22.1838 74.0697 23.4003 74.9534 24.393 74.364L38.5715 65.945L52.7499 74.364C53.7428 74.9535 54.959 74.0697 54.7053 72.9433L51.0797 56.8571L63.4681 45.9742C64.3354 45.2122 63.8708 43.7822 62.7212 43.6756Z" fill="#CBACD7"/>
<path d="M21.7864 26.4858C22.6234 27.6484 24.986 32.6414 26.3367 35.5512C26.5491 36.0086 25.9751 36.4219 25.6086 36.0753C23.2776 33.8714 19.292 30.0469 18.4549 28.8842C17.7926 27.9643 18.0014 26.6816 18.9215 26.0192C19.8414 25.3569 21.1241 25.5659 21.7864 26.4858Z" fill="#CBACD7"/>
<path d="M55.3566 26.4858C54.5196 27.6484 52.157 32.6414 50.8064 35.5512C50.594 36.0086 51.1679 36.4219 51.5344 36.0753C53.8654 33.8714 57.8509 30.0468 58.6881 28.8842C59.3504 27.9643 59.1416 26.6816 58.2215 26.0192C57.3016 25.3569 56.019 25.5659 55.3566 26.4858Z" fill="#CBACD7"/>
<path d="M68.5836 60.5785C67.2216 60.1343 61.7468 59.4005 58.5643 58.9978C58.064 58.9345 57.8447 59.6069 58.2861 59.8507C61.0941 61.4019 65.9488 64.037 67.3108 64.4811C68.3884 64.8326 69.547 64.244 69.8985 63.1662C70.2499 62.0884 69.6613 60.93 68.5836 60.5785Z" fill="#CBACD7"/>
<path d="M8.55951 60.5785C9.9215 60.1343 15.3963 59.4005 18.5789 58.9978C19.0791 58.9345 19.2984 59.6069 18.8571 59.8507C16.049 61.4019 11.1944 64.037 9.83237 64.4811C8.75471 64.8326 7.59615 64.244 7.24466 63.1662C6.89318 62.0884 7.48185 60.93 8.55951 60.5785Z" fill="#CBACD7"/>
<path d="M36.582 83.7426C36.582 82.31 37.582 76.8775 38.186 73.7269C38.2809 73.2317 38.9882 73.2317 39.0831 73.7269C39.6871 76.8775 40.687 82.31 40.687 83.7426C40.687 84.8761 39.7681 85.795 38.6346 85.795C37.501 85.7951 36.582 84.8761 36.582 83.7426Z" fill="#CBACD7"/>
<path d="M42.1515 32.5151L39.7797 27.0078C39.323 25.9473 37.8195 25.9473 37.3629 27.0078L30.8407 42.1527L14.4217 43.6756C13.272 43.7822 12.8075 45.2122 13.6748 45.9742L26.0631 56.8571L22.4376 72.9433C22.1837 74.0697 23.4003 74.9534 24.393 74.364L26.28 73.2435C29.3737 53.2175 38.0708 38.517 42.1515 32.5151Z" fill="#995BB0"/>
</g>
<defs>
<radialGradient id="paint0_radial" cx="0" cy="0" r="1" gradientUnits="userSpaceOnUse" gradientTransform="translate(40 50) rotate(90) scale(50 40)">
<stop stop-color="#F8EFF7"/>
<stop offset="1" stop-color="#DFCFF3" stop-opacity="0"/>
</radialGradient>
<clipPath id="clip0">
<rect width="62.8571" height="62.8571" fill="white" transform="translate(7.14282 24.2856)"/>
</clipPath>
</defs>
</svg>
